<?xml version="1.0" encoding="iso-8859-1"?>
<!-- Uploaded to: SVG Repo, www.svgrepo.com, Generator: SVG Repo Mixer Tools -->
<svg fill="#000000" height="800px" width="800px" version="1.1" id="Layer_1" xmlns="http://www.w3.org/2000/svg" xmlns:xlink="http://www.w3.org/1999/xlink" 
	 viewBox="0 0 348.774 348.774" xml:space="preserve">
<g>
	<g>
		<polygon points="253.158,310.093 326.139,310.093 326.139,248.346 283.336,248.346 		"/>
		<polygon points="58.076,310.093 131.057,310.093 131.057,248.346 88.259,248.346 		"/>
		<polygon points="16.62,65.398 16.486,65.454 16.62,65.685 		"/>
		<path d="M348.749,64.85l-0.051-0.671l-0.21-2.657c-0.988-9.047-4.357-16.241-8.653-22.292
			c-4.352-5.929-9.518-10.219-14.423-13.261c-4.92-3.067-9.61-4.844-13.471-6.18c-3.886-1.306-7.055-1.889-9.206-2.289
			c-2.161-0.364-3.318-0.558-3.318-0.558c-4.316-0.727-8.407,2.181-9.134,6.492c-0.727,4.316,2.181,8.402,6.492,9.134
			c0.235,0.041,0.466,0.067,0.701,0.087l0.507,0.041c0,0,0.881,0.067,2.534,0.195c1.654,0.123,4.07,0.507,7.045,1.316
			c2.97,0.794,6.548,2.063,10.122,4.321c3.543,2.227,7.378,5.156,10.138,9.323c1.336,2.084,2.698,4.291,3.487,6.82
			c0.527,1.213,0.712,2.565,1.07,3.871c0.225,1.352,0.353,2.258,0.502,3.814l0.072,2.662l0.01,0.42l-0.01,0.133l-0.113,1.352
			c-0.148,1.802-0.302,3.63-0.456,5.473c-0.307,3.692-0.625,7.465-0.942,11.3c-1.28,15.345-2.647,31.708-4.014,48.077
			c-1.311,16.369-2.842,32.727-4.244,48.061c-1.418,15.124-2.591,29.245-3.866,41.39H29.476c-1.275-12.15-2.437-26.266-3.86-41.39
			c-1.403-15.34-2.918-31.698-4.234-48.061c-1.367-16.369-2.708-32.732-3.988-48.077c-0.323-3.835-0.584-7.608-0.891-11.3
			c-0.154-1.848-0.205-3.671-0.358-5.473l0.087-1.352l0.251-0.113l-0.251-0.44l-0.328-2.662c0.148-1.562,0.276-2.463,0.502-3.814
			c0.358-1.306,0.543-2.657,1.07-3.871c0.789-2.529,2.15-4.736,3.487-6.82c2.765-4.163,6.6-7.091,10.138-9.323
			c3.574-2.258,7.153-3.528,10.122-4.321c2.975-0.809,5.396-1.188,7.045-1.316c1.654-0.128,2.534-0.195,2.534-0.195l0.507-0.041
			c0.23-0.02,0.466-0.046,0.701-0.087c4.316-0.727,7.224-4.818,6.497-9.134c-0.727-4.316-4.818-7.224-9.134-6.492
			c0,0-1.152,0.195-3.318,0.558c-2.15,0.399-5.32,0.983-9.206,2.289c-3.86,1.341-8.55,3.113-13.471,6.18
			c-4.905,3.041-10.071,7.332-14.423,13.261C4.659,45.281,1.29,52.475,0.302,61.522l-0.21,2.657L0.041,64.85l-0.026,0.333
			L0.01,66.309l0.015,1.352C0.046,69.473,0,305.582,0,305.582v5.274c0,11.602,9.492,21.089,21.089,21.089h110.725
			c11.602,0,21.089-9.492,21.089-21.089V258.13h42.179v52.726c0,11.602,9.492,21.089,21.089,21.089h110.725
			c11.602,0,21.089-9.492,21.089-21.089c0,0,0.753-241.382,0.768-243.19l0.015-1.352l0.005-1.132L348.749,64.85z M137.093,310.856
			c0,2.857-2.417,5.274-5.274,5.274H21.094c-2.857,0-5.274-2.417-5.274-5.274v-63.273c0-2.857,2.417-5.274,5.274-5.274H131.82
			c2.857,0,5.274,2.417,5.274,5.274V310.856z M332.18,310.856h-0.005c0,2.857-2.417,5.274-5.274,5.274h-110.72
			c-2.857,0-5.274-2.417-5.274-5.274v-63.273c0-2.857,2.417-5.274,5.274-5.274h110.725c2.857,0,5.274,2.417,5.274,5.274V310.856z"/>
	</g>
</g>
</svg>